<svg xmlns="http://www.w3.org/2000/svg" viewBox="0.632 37.865 433.599 423.942">
  
  <path 
    d="M 172.2 461.807 L 172.2 374.117 L 0.632 374.117 L 0.632 311.795 L 173.725 38.693 L 253.735 38.693 L 253.735 304.878 L 308.349 304.878 L 308.349 374.117 L 253.735 374.117 L 253.735 461.807 L 172.2 461.807 Z M 79.103 304.878 L 172.2 304.878 L 172.2 233.319 C 172.2 228.712 172.325 221.794 172.581 212.562 C 172.832 203.325 173.214 193.572 173.725 183.317 C 174.241 173.057 174.757 164.085 175.264 156.391 C 175.784 148.697 176.044 144.081 176.044 142.547 L 173.725 142.547 C 170.141 150.761 166.296 158.45 162.182 165.628 C 158.082 172.81 153.47 180.504 148.338 188.705 L 79.103 304.878 Z" 
    style="fill: var(--number-color, #333);"
  />

  <rect 
    x="361.389" 
    y="388.786" 
    width="73.02" 
    height="73.02" 
    style="fill: var(--number-color, #333);"
  />
</svg>