<svg xmlns="http://www.w3.org/2000/svg" viewBox="0.632 37.865 433.599 423.942">
  
  <rect x="361.389" y="388.786" width="73.02" height="73.02" style="stroke-width: 0; stroke: rgb(51, 50, 50); paint-order: stroke; fill: rgb(51, 50, 50);"></rect>
  <path d="M 118.372 461.807 C 99.874 461.807 80.5 459.931 60.252 456.183 C 39.995 452.435 20.368 446.807 1.375 439.311 L 1.375 365.819 C 18.873 373.813 37.498 380.063 57.248 384.567 C 76.997 389.058 95.12 391.306 111.62 391.306 C 159.612 391.306 183.608 371.561 183.608 332.071 C 183.608 312.072 176.733 298.069 162.984 290.066 C 149.234 282.072 125.864 278.07 92.868 278.07 L 61.367 278.07 L 61.367 211.322 L 93.611 211.322 C 123.113 211.322 144.494 206.577 157.744 197.083 C 170.987 187.579 177.608 173.83 177.608 155.834 C 177.608 142.828 173.982 131.952 166.731 123.201 C 159.489 114.455 146.365 110.077 127.359 110.077 C 103.363 110.077 73.621 119.829 38.128 139.334 L 0.632 79.338 C 19.625 66.345 40.498 56.343 63.243 49.342 C 85.989 42.336 108.865 38.833 131.868 38.833 C 153.861 38.833 174.363 42.214 193.369 48.97 C 212.366 55.714 227.734 66.214 239.48 80.47 C 251.235 94.714 257.113 113.585 257.113 137.086 C 257.113 161.082 250.238 182.454 236.489 201.202 C 222.739 219.95 202.867 232.576 176.864 239.074 L 176.864 241.318 C 209.362 245.822 232.859 256.2 247.352 272.446 C 261.853 288.697 269.104 310.069 269.104 336.566 C 269.104 365.561 262.356 389.308 248.852 407.811 C 235.352 426.309 217.229 439.936 194.484 448.683 C 171.739 457.434 146.365 461.807 118.372 461.807 Z" style="fill: var(--number-color, #333);"></path>

  <rect 
    x="361.389" 
    y="388.786" 
    width="73.02" 
    height="73.02" 
    style="fill: var(--number-color, #333);"
  />
</svg>