<svg xmlns="http://www.w3.org/2000/svg" viewBox="0.632 37.865 433.599 423.942">
  <path 
    d="M1.456 461.807L1.456 400.973L103.342 299.091C128.174 274.246 149.463 251.561 167.209 231.03C184.951 210.504 193.823 188.576 193.823 165.247C193.823 148.522 188.879 135.472 178.99 126.098C169.115 116.714 156.314 112.019 140.594 112.019C124.883 112.019 109.798 115.57 95.347 122.674C80.901 129.773 65.318 140.672 48.593 155.368L0.702 98.335C15.912 85.16 30.456 74.137 44.424 65.264C58.352 56.395 73.429 49.802 89.64 45.482C105.865 41.181 124.874 39.026 146.674 39.026C189.261 39.026 222.468 50.05 246.295 72.097C270.124 94.157 282.039 121.663 282.039 154.615C282.039 179.446 276.584 202.132 265.685 222.672C254.781 243.202 240.459 262.588 222.712 280.836C204.971 299.091 185.456 317.591 164.176 336.34L110.175 383.489L110.175 389.568L292.676 389.568L292.676 461.807L1.456 461.807Z" 
    style="fill: var(--number-color, #333);"
  />
  <rect 
    x="361.389" 
    y="388.786" 
    width="73.02" 
    height="73.02" 
    style="fill: var(--number-color, #333);"
  />
</svg>